PathFileType	4	(X/Y/Z)	D:\MotionData\Pi-Spi Study\20230118_AMCsubject1\Trimmed_right_horiz_abd01_rotated.trc
DataRate	CameraRate	NumFrames	NumMarkers	Units	OrigDataRate	OrigDataStartFrame	OrigNumFrames
200.00	200.00	       6	35	mm	200.00	151	       200
Frame#	Time	C7			Sternum			r_AMC1			r_AMC2			r_AMC3			l_AMC1			l_AMC2			l_AMC3			PX			T8			r_humerous			r_elbow_medial			r_elbow_lateral			r_forearm			r_wrist_radius			r_wrist_ulna			r_MCP_1			r_MCP_3			l_humerous			l_elbow_medial			l_elbow_lateral			l_forearm			l_wrist_radius			l_wrist_ulna			l_MCP_1			l_MCP_3			r_ASIS			r_PSIS			l_ASIS			l_PSIS			r_IC			l_IC			TS			AI			AA			
		X1	Y1	Z1	X2	Y2	Z2	X3	Y3	Z3	X4	Y4	Z4	X5	Y5	Z5	X6	Y6	Z6	X7	Y7	Z7	X8	Y8	Z8	X9	Y9	Z9	X10	Y10	Z10	X11	Y11	Z11	X12	Y12	Z12	X13	Y13	Z13	X14	Y14	Z14	X15	Y15	Z15	X16	Y16	Z16	X17	Y17	Z17	X18	Y18	Z18	X19	Y19	Z19	X20	Y20	Z20	X21	Y21	Z21	X22	Y22	Z22	X23	Y23	Z23	X24	Y24	Z24	X25	Y25	Z25	X26	Y26	Z26	X27	Y27	Z27	X28	Y28	Z28	X29	Y29	Z29	X30	Y30	Z30	X31	Y31	Z31	X32	Y32	Z32	X33	Y33	Z33	X34	Y34	Z34	X35	Y35	Z35	

151	0.75	215.8781	1376.9176	-262.4646	343.4676	1309.4142	-233.5381	174.0997	1364.0236	-136.2793	200.9356	1387.3551	-101.4147	225.8213	1407.1593	-133.5648	241.9763	1314.2336	-409.5488	281.6252	1301.1462	-440.1894	306.8499	1336.2882	-410.8386	379.3409	1113.4147	-200.4314	156.2723	1200.2024	-252.9695	236.7131	1367.2736	47.1052	202.3802	1281.3102	167.9841	159.4084	1323.2222	158.6351	115.1249	1339.8071	317.1014	112.4528	1364.1056	389.4774	108.9232	1312.3928	386.3772	94.4698	1368.921	473.6489	97.4853	1321.5415	473.2758	345.5636	1106.0742	-417.7642	264.1755	978.8363	-407.7156	286.005	975.5456	-459.1903	345.548	827.6856	-473.1943	388.6122	758.3701	-445.945	349.9567	751.3613	-466.7277	405.033	681.6724	-453.5712	361.1785	676.827	-470.67	343.7192	906.0633	-63.5019	159.0447	929.1575	-155.0893	357.4918	889.7366	-324.5836	165.7064	923.0156	-259.1225	260.4675	971.9332	-42.0436	270.7635	937.1328	-367.3763	114.315	1331.3716	-207.5626	98.8773	1235.7687	-175.4726	130.9727	1367.6392	-68.7682
152	0.755	215.8903	1376.9125	-262.5039	343.4952	1309.3986	-233.5543	174.2867	1363.8656	-136.3577	200.9829	1387.3649	-101.4205	225.8935	1407.0797	-133.5814	242.0223	1314.2538	-409.5993	282.1612	1301.231	-439.9558	306.9984	1336.2228	-411.0216	379.4073	1113.3535	-200.4395	156.2852	1200.1952	-252.9737	236.7573	1367.2477	47.1056	202.3866	1281.3096	167.966	159.5283	1323.5406	159.014	115.203	1339.9904	317.1457	112.452	1364.1329	389.4416	108.8721	1312.3121	386.3885	94.4573	1368.9609	473.6442	97.4788	1321.5769	473.2499	345.5891	1106.0713	-417.8091	264.1615	978.85	-407.6906	286.0174	975.5576	-459.1958	345.5744	827.6865	-473.2024	388.6527	758.3695	-445.8788	349.8394	751.5706	-467.0245	405.0663	681.544	-453.4583	361.2629	676.8279	-470.6103	343.7034	906.0225	-63.4891	159.0763	929.1863	-155.1158	357.5169	889.7252	-324.5672	165.7106	923.0508	-259.1422	260.5183	971.8894	-42.042	270.895	937.0209	-367.3527	114.3311	1331.386	-207.5649	98.8795	1235.774	-175.4299	131.128	1367.8086	-68.9321
153	0.76	215.9038	1376.9302	-262.4773	343.5165	1309.3849	-233.5548	174.1462	1364.0308	-136.2873	201.135	1387.5222	-101.9107	225.8596	1407.14	-133.5801	242.0583	1314.3066	-409.605	282.16	1301.3372	-439.9519	306.8496	1336.3325	-410.6215	379.3917	1113.3455	-200.4625	156.2886	1200.182	-252.9591	236.7631	1367.2704	47.102	202.4049	1281.3214	167.9205	159.5694	1323.5426	158.9726	115.1329	1339.8867	317.0317	112.4276	1364.1536	389.4216	108.8688	1312.3712	386.351	94.4454	1368.9822	473.6154	97.4506	1321.6063	473.2301	345.587	1106.0527	-417.7739	264.1842	978.8699	-407.6928	286.0197	975.5706	-459.1867	345.5911	827.694	-473.1475	388.6676	758.3879	-445.8516	349.9194	751.4987	-466.9482	405.1199	681.5983	-453.4442	361.2713	676.8428	-470.572	343.7491	906.021	-63.514	160.4457	929.0819	-156.8627	357.5363	889.7118	-324.5809	165.7341	923.0449	-259.1467	260.495	971.9155	-42.0581	270.8633	937.0773	-367.3687	114.339	1331.3589	-207.5468	98.8942	1235.7803	-175.4614	131.0429	1367.6777	-68.7181
154	0.765	215.9008	1376.9302	-262.4997	343.5059	1309.4091	-233.5719	174.3293	1363.8717	-136.3476	201.0357	1387.3459	-101.4348	225.929	1407.1257	-133.653	242.1269	1314.3129	-409.6749	281.7981	1301.1751	-440.2051	307.0065	1336.3148	-410.951	379.4071	1113.3965	-200.4943	156.3291	1200.2024	-252.9738	236.8554	1367.2582	47.0383	202.4159	1281.34	167.9269	159.5655	1323.5448	158.959	115.1206	1339.9011	317.0138	112.4338	1364.2012	389.401	108.9202	1312.5128	386.3324	94.4243	1369.031	473.602	97.4614	1321.6406	473.2133	345.6065	1106.0615	-417.8413	264.1664	978.8743	-407.6961	285.9867	975.5695	-459.1815	345.5552	827.75	-473.1364	388.6846	758.4164	-445.8186	349.8646	751.6922	-467.0487	405.1849	681.4615	-453.3258	361.2956	676.8505	-470.5103	343.7776	906.043	-63.513	159.099	929.3895	-154.9815	357.5595	889.717	-324.5913	165.7711	923.0405	-259.1815	260.5675	971.8616	-42.0532	270.8636	937.1044	-367.3499	114.3589	1331.3795	-207.554	98.8839	1235.7661	-175.4037	131.0857	1367.6668	-68.726
155	0.77	215.9203	1376.9262	-262.4929	343.554	1309.3973	-233.5866	174.2185	1364.0385	-136.3057	201.0529	1387.3357	-101.4344	225.9096	1407.1975	-133.6544	242.2147	1314.2688	-409.6924	282.2976	1301.3243	-439.986	307.1424	1336.2224	-410.9901	379.416	1113.3982	-200.4845	156.3296	1200.2063	-252.962	236.863	1367.2577	47.0492	202.418	1281.3368	167.9028	159.5949	1323.5952	158.9545	115.1111	1339.9311	316.9875	112.4187	1364.2108	389.3768	108.9087	1312.5415	386.3153	94.5101	1369.1869	473.8926	97.4477	1321.6827	473.1931	345.612	1106.0674	-417.8292	264.2018	978.9266	-407.6755	286.0376	975.5985	-459.1957	345.5833	827.7253	-473.1409	388.6894	758.4271	-445.7941	349.9393	751.5043	-466.853	405.1327	681.7155	-453.4685	361.2876	676.8586	-470.4923	343.7835	906.0367	-63.4908	160.4904	929.1049	-156.848	357.5655	889.7236	-324.5698	165.7742	923.0255	-259.1377	260.5827	971.8744	-42.0709	270.8897	937.0981	-367.3966	114.3558	1331.3733	-207.5519	98.9169	1235.7769	-175.4294	131.129	1367.6849	-68.7427
156	0.775	215.9572	1376.9473	-262.4846	343.5693	1309.39	-233.5452	174.2322	1364.0478	-136.3141	201.089	1387.3309	-101.4257	225.9341	1407.1867	-133.66	242.2123	1314.3726	-409.6938	282.3668	1301.3097	-439.962	307.0659	1336.2987	-410.7338	379.4442	1113.3531	-200.5167	156.3549	1200.2039	-252.9715	236.8902	1367.2666	47.0552	202.4315	1281.3928	167.9067	159.6248	1323.6245	158.9223	115.1332	1339.955	316.978	112.4108	1364.2653	389.346	108.8798	1312.5066	386.3207	94.4794	1369.218	473.8695	97.4301	1321.7098	473.1777	345.6643	1106.0067	-417.8431	264.1947	978.9318	-407.6982	286.0538	975.6207	-459.1974	345.5928	827.7595	-473.069	388.6795	758.4375	-445.7542	349.9592	751.5383	-466.8442	405.1923	681.5725	-453.287	361.3324	676.8618	-470.4567	343.8219	906.0533	-63.4847	160.4887	929.1022	-156.8021	357.5976	889.6992	-324.5836	165.8028	923.0542	-259.1402	260.605	971.8802	-42.0551	270.9729	937.028	-367.334	114.388	1331.3959	-207.5359	98.945	1235.8169	-175.4163	131.1587	1367.7256	-68.7192
